# xmcd
#
# Track frame offsets:
#	150
#	8676
#	26383
#	41023
#	56875
#	69574
#	89322
#	104097
#	122502
#	135989
#	162267
#	175544
#
# Disc length: 2434 seconds
#
# Revision: 1
# Processed by: cddbd v1.5.2PL0 Copyright (c) Steve Scherf et al.
# Submitted via: audiograbber 1.83.01
#
DISCID=9409800c
DTITLE=Lesley Gore - Someplace Else Now
DYEAR=1972
DGENRE=Oldies
TTITLE0=For Me
TTITLE1=The Road I Walk
TTITLE2=Out Of Love
TTITLE3=She Said That
TTITLE4=Don't Wanna Be One
TTITLE5=Be My Life
TTITLE6=Where Do You Go
TTITLE7=What Did I Do Wrong
TTITLE8=Someplace Else Now
TTITLE9=Mine
TTITLE10=No Sad Songs
TTITLE11=For You
EXTD=
EXTT0=
EXTT1=
EXTT2=
EXTT3=
EXTT4=
EXTT5=
EXTT6=
EXTT7=
EXTT8=
EXTT9=
EXTT10=
EXTT11=
PLAYORDER=
